<svg version="1.1" id="Layer_1" xmlns="http://www.w3.org/2000/svg" xmlns:xlink="http://www.w3.org/1999/xlink" x="0px" y="0px"
	 width="100%" viewBox="0 0 965 675" enable-background="new 0 0 965 675" xml:space="preserve">
<path fill="#FFFFFF" opacity="1.000000" stroke="none" 
	d="
M697.000000,676.000000 
	C464.666748,676.000000 232.833466,676.000000 1.000155,676.000000 
	C1.000104,451.000122 1.000104,226.000275 1.000052,1.000306 
	C322.666443,1.000204 644.332886,1.000204 965.999512,1.000102 
	C965.999634,225.999695 965.999634,450.999390 965.999817,675.999512 
	C876.500000,676.000000 787.000000,676.000000 697.000000,676.000000 
M523.503479,146.341644 
	C525.024536,145.881165 526.983948,145.866196 527.986877,144.879227 
	C531.403687,141.516800 534.483398,137.811798 539.054565,132.719345 
	C573.087585,167.327515 606.171631,200.970642 639.875366,235.243927 
	C639.875366,208.643387 639.928406,183.021439 639.752136,157.401077 
	C639.740784,155.751419 638.239258,153.843567 636.956726,152.512878 
	C624.815125,139.915176 612.580994,127.406540 600.353333,114.891899 
	C580.794495,94.873955 561.220276,74.870979 542.591736,55.822060 
	C524.239258,73.715736 506.042450,91.457649 487.010803,110.013496 
	C488.780975,111.381790 490.784790,112.457710 492.126526,114.080910 
	C494.040070,116.395905 495.468170,119.112114 496.281036,120.948578 
	C474.075409,99.179993 451.869781,77.411407 429.534790,55.515987 
	C429.903046,55.287144 429.573914,55.412254 429.351624,55.641121 
	C397.651581,88.275726 365.933533,120.893021 334.352753,153.642670 
	C332.965057,155.081741 332.226440,157.730927 332.213806,159.822647 
	C332.067902,183.987305 332.117310,208.153168 332.132233,232.318710 
	C332.132874,233.373215 332.301971,234.427628 332.429626,235.912949 
	C366.505310,202.041550 400.145874,168.602631 433.498322,135.450104 
	C438.264099,140.089874 442.996887,144.697540 448.264435,149.825821 
	C429.919037,168.185226 411.617523,186.500687 394.116150,204.015427 
	C424.801880,234.903244 455.536163,265.839935 486.230621,296.736542 
	C516.846375,265.937317 547.605469,234.993851 579.399719,203.009048 
	C562.011780,186.048965 544.117920,168.614441 526.263672,151.139420 
	C525.007446,149.909927 524.044189,148.381134 523.503479,146.341644 
M121.047943,401.498810 
	C121.047943,381.140472 121.047943,360.782166 121.047943,339.042786 
	C108.088959,355.199585 96.071671,370.182312 83.847237,385.423279 
	C71.528236,370.063385 59.608536,355.201324 47.022942,339.509033 
	C47.022942,366.603363 47.022942,392.582367 47.022942,418.656311 
	C52.431541,418.656311 57.632874,418.656311 63.346138,418.656311 
	C63.346138,407.662659 63.346138,397.034515 63.346138,385.478882 
	C70.496262,394.683533 76.988708,403.041534 83.851250,411.875946 
	C90.793587,402.982513 97.345062,394.589752 103.896545,386.197021 
	C104.217026,386.356659 104.537514,386.516327 104.858002,386.675995 
	C104.858002,391.947296 104.858002,397.218597 104.858002,402.489899 
	C104.858002,407.909027 104.858002,413.328156 104.858002,418.715729 
	C110.610924,418.715729 115.680168,418.715729 121.047958,418.715729 
	C121.047958,413.105255 121.047958,407.801727 121.047943,401.498810 
M218.162720,382.359741 
	C218.750153,370.400543 214.952621,360.140625 206.416992,351.648285 
	C193.114288,338.413055 172.427795,336.092163 156.864670,346.154480 
	C140.780136,356.553894 134.137894,376.173615 140.733109,393.803650 
	C147.300888,411.360413 165.317825,422.310394 183.429932,419.752991 
	C202.327896,417.084625 216.586975,402.088837 218.162720,382.359741 
M585.987915,384.510193 
	C598.147034,396.365814 610.306152,408.221436 623.108032,420.703735 
	C623.108032,393.430206 623.108032,367.355255 623.108032,341.308350 
	C617.619446,341.308350 612.391479,341.308350 606.677246,341.308350 
	C606.677246,355.008026 606.677246,368.345947 606.677246,382.437805 
	C591.739807,367.829041 577.441711,353.845612 562.445801,339.179688 
	C562.445801,366.463226 562.445801,392.498199 562.445801,418.741486 
	C567.926819,418.741486 573.147400,418.741486 579.018677,418.741486 
	C579.018677,405.165283 579.018677,391.868622 579.018677,378.571960 
	C579.410217,378.403870 579.801697,378.235779 580.193237,378.067688 
	C581.956177,380.049896 583.719055,382.032135 585.987915,384.510193 
M342.296631,392.206451 
	C351.856506,401.517609 361.416382,410.828796 371.605225,420.752563 
	C371.605225,393.481964 371.605225,367.428436 371.605225,341.278137 
	C366.104309,341.278137 360.886169,341.278137 355.027100,341.278137 
	C355.027100,354.909973 355.027100,368.216553 355.027100,382.350769 
	C340.078613,367.725006 325.884125,353.836945 311.072144,339.344727 
	C311.072144,366.501221 311.072144,392.544525 311.072144,418.642853 
	C316.544556,418.642853 321.747772,418.642853 327.289368,418.642853 
	C327.289368,405.023315 327.289368,391.791260 327.289368,378.559174 
	C327.876648,378.087952 328.463898,377.616699 329.051178,377.145477 
	C333.296173,382.001129 337.541168,386.856750 342.296631,392.206451 
M506.395569,419.031097 
	C508.525940,419.031097 510.656281,419.031097 513.397278,419.031097 
	C507.493561,400.201904 501.763947,381.928162 495.837677,363.027069 
	C494.853271,365.152771 494.237823,366.481750 493.393829,368.304230 
	C487.786896,354.238678 482.381348,340.678162 476.624512,326.236542 
	C471.725861,338.529266 467.265656,349.721771 462.476837,361.738831 
	C460.954559,358.697723 459.854675,356.500427 458.398346,353.591064 
	C455.088837,365.266510 452.045654,375.974304 449.019379,386.686859 
	C446.014679,397.323120 443.026886,407.964172 439.911163,419.031097 
	C442.334320,419.031097 444.151733,419.030609 445.969177,419.031189 
	C458.431061,419.035248 458.408966,419.026093 463.149139,407.680939 
	C467.502380,397.261932 471.910065,386.865723 476.649139,375.615723 
	C481.612518,387.421783 486.178253,398.284485 490.746063,409.146271 
	C494.903198,419.031494 494.904236,419.031067 506.395569,419.031097 
M251.076035,380.486572 
	C251.076035,367.403198 251.076035,354.319855 251.076035,341.225861 
	C245.349319,341.225861 240.269958,341.225861 235.000610,341.225861 
	C235.000610,359.449493 234.994659,377.391296 235.019806,395.333099 
	C235.020950,396.150574 235.271652,396.974762 235.457825,397.783905 
	C238.694290,411.849548 252.109634,421.508331 266.200012,419.925903 
	C280.729584,418.294189 291.688721,406.325043 291.859985,391.500916 
	C292.035004,376.352783 291.904449,361.201111 291.907562,346.050995 
	C291.907867,344.452545 291.907593,342.854126 291.907593,341.336426 
	C286.036438,341.336426 280.826111,341.336426 275.315002,341.336426 
	C275.315002,343.534576 275.315704,345.347351 275.314880,347.160095 
	C275.307953,361.977173 275.416504,376.795624 275.242645,391.610718 
	C275.161163,398.552643 270.302063,403.285645 263.681915,403.534882 
	C256.972565,403.787476 251.597656,398.938843 251.135132,391.965454 
	C250.904236,388.484192 251.082748,384.975800 251.076035,380.486572 
M679.113586,356.503845 
	C679.113586,377.255371 679.113586,398.006897 679.113586,418.625031 
	C685.031067,418.625031 690.248962,418.625031 695.951965,418.625031 
	C695.951965,409.478027 695.951965,400.731354 695.951965,391.629364 
	C700.759521,391.629364 705.074890,391.797333 709.373291,391.598511 
	C723.466858,390.946716 732.983887,382.113342 733.986816,368.923370 
	C735.071899,354.653503 727.602783,343.240753 714.166565,341.691162 
	C702.741638,340.373505 691.044128,341.419098 679.113647,341.419098 
	C679.113647,346.233459 679.113647,350.869568 679.113586,356.503845 
M754.102661,413.603973 
	C755.066162,409.240326 757.778931,408.001831 762.109009,408.374878 
	C766.904480,408.788025 771.815430,408.914520 776.580383,408.353241 
	C782.162903,407.695709 785.266907,409.571777 786.759827,414.985870 
	C787.186401,416.533020 788.946777,418.729004 790.247681,418.839752 
	C795.453979,419.282837 800.720154,419.022675 806.826721,419.022675 
	C794.469727,392.118256 782.493103,366.041992 770.060120,338.972015 
	C757.529907,366.290833 745.575012,392.355530 733.417114,418.862610 
	C740.020630,418.862610 745.815979,418.862610 751.754456,418.862610 
	C752.450317,417.372620 753.149353,415.875671 754.102661,413.603973 
M839.302307,419.991882 
	C856.227173,417.940460 865.549866,405.312775 861.992310,389.190887 
	C860.316528,381.596588 855.223022,376.815155 848.629211,373.352905 
	C844.217529,371.036469 839.650818,368.987976 835.379822,366.440063 
	C832.196777,364.541199 830.663513,361.611938 833.060730,358.016479 
	C834.890015,355.272705 839.579834,354.861298 842.438782,357.192902 
	C843.693726,358.216461 844.635193,359.624298 845.905212,361.069427 
	C850.336792,359.070984 854.829895,357.044800 859.700317,354.848480 
	C855.985596,345.998718 849.687683,341.148590 840.766113,340.164581 
	C831.494751,339.141998 823.604248,342.017120 818.534729,350.362762 
	C814.178711,357.533661 814.424194,368.271149 819.741211,374.322052 
	C822.718201,377.709900 826.866333,380.174896 830.760071,382.620636 
	C834.542725,384.996613 839.056458,386.334961 842.504700,389.068146 
	C844.459229,390.617310 846.187195,394.321991 845.711975,396.568146 
	C845.182312,399.072052 842.431946,401.874207 839.943909,403.028259 
	C835.428650,405.122711 830.273926,402.509796 827.886475,397.856689 
	C827.167419,396.455292 826.658264,394.946228 825.953552,393.246796 
	C820.825989,395.613861 816.067200,397.810699 811.397461,399.966431 
	C815.059937,412.777771 824.654785,419.737976 839.302307,419.991882 
M897.379395,366.005066 
	C894.458557,363.430847 893.512024,360.465912 896.334778,357.359314 
	C899.173645,354.235046 903.423340,355.521240 908.921509,360.946594 
	C913.349243,358.935150 917.811584,356.907990 922.249512,354.891937 
	C917.606750,344.057648 908.154541,338.674683 897.141968,340.118713 
	C886.825562,341.471405 879.865417,348.526794 878.359314,359.158356 
	C877.014893,368.649292 881.929626,376.900421 891.906738,381.948608 
	C896.351562,384.197571 901.108704,386.033020 905.072815,388.943329 
	C907.089355,390.423828 909.062622,394.217804 908.534912,396.338806 
	C907.874878,398.991211 905.025452,401.859985 902.397827,403.089355 
	C898.094055,405.103027 893.079407,402.507050 890.695190,398.077240 
	C889.926575,396.649139 889.356567,395.114227 888.567383,393.339661 
	C883.551331,395.614014 878.783508,397.775818 873.942688,399.970703 
	C874.409851,401.425323 874.654724,402.377655 875.015991,403.283600 
	C879.413696,414.311920 890.820984,421.096954 903.000793,419.947906 
	C914.195190,418.891846 922.998352,411.089447 924.881226,400.554840 
	C927.143799,387.896210 922.256531,378.829163 909.927307,372.679474 
	C905.913818,370.677582 901.963318,368.549347 897.379395,366.005066 
M419.236938,419.031067 
	C423.059082,419.196442 421.808563,416.285370 421.816772,414.454834 
	C421.893433,397.306885 421.862274,380.158447 421.862335,363.010132 
	C421.862335,361.220276 421.862335,359.430450 421.862335,357.074677 
	C428.519135,357.074677 434.580353,357.074677 440.532654,357.074677 
	C440.532654,351.416687 440.532654,346.332214 440.532654,341.265717 
	C422.307953,341.265717 404.418030,341.265717 386.401245,341.265717 
	C386.401245,346.672058 386.401245,351.750092 386.401245,357.418915 
	C392.699005,357.418915 398.758453,357.418915 405.333527,357.418915 
	C405.333527,378.231750 405.333527,398.457916 405.333527,419.035004 
	C410.006897,419.035004 414.146423,419.035004 419.236938,419.031067 
M542.999573,378.500000 
	C542.999573,365.765656 542.999573,353.031281 542.999573,340.331451 
	C537.006958,340.331451 531.623169,340.331451 526.302124,340.331451 
	C526.302124,366.674103 526.302124,392.684723 526.302124,418.669006 
	C531.992004,418.669006 537.375793,418.669006 542.999573,418.669006 
	C542.999573,405.393433 542.999573,392.446716 542.999573,378.500000 
M612.825439,496.853241 
	C616.009460,497.360626 617.134399,496.191345 617.076843,492.814423 
	C616.876038,481.015350 616.999084,469.210785 616.999084,458.294373 
	C619.331665,456.732361 621.002930,455.613159 622.674255,454.493988 
	C622.411560,454.083923 622.148804,453.673828 621.886108,453.263763 
	C616.784912,453.263763 611.683716,453.263763 606.582520,453.263763 
	C606.340942,453.745605 606.099426,454.227448 605.857849,454.709259 
	C607.587402,455.728943 609.316956,456.748596 611.001648,457.741821 
	C611.001648,467.358215 611.001648,477.097748 611.001648,488.161743 
	C604.845459,478.768921 598.791260,470.932800 594.308044,462.282440 
	C590.139587,454.239532 584.526733,451.361176 576.024536,453.050873 
	C575.717102,453.112000 575.440125,453.326050 573.670898,454.193726 
	C576.180176,455.689148 577.912781,456.721710 579.862610,457.883728 
	C579.862610,469.167725 579.862610,480.777405 579.862610,491.786774 
	C577.819153,493.103943 576.177795,494.161926 574.536438,495.219879 
	C574.789368,495.685944 575.042297,496.152039 575.295166,496.618103 
	C580.397461,496.618103 585.499756,496.618103 590.602051,496.618103 
	C590.858887,496.164734 591.115784,495.711365 591.372620,495.258026 
	C589.625671,494.159668 587.878662,493.061310 586.184082,491.995911 
	C586.184082,482.247345 586.184082,472.318848 586.184082,461.334167 
	C593.753357,472.693695 600.610535,483.110687 607.648682,493.403900 
	C608.645386,494.861633 610.522949,495.717010 612.825439,496.853241 
M284.109711,490.376862 
	C282.035858,485.707764 279.962006,481.038666 277.851898,476.287964 
	C283.314514,473.587708 286.498657,469.305908 285.439972,462.764679 
	C284.558014,457.315369 281.103638,453.819916 274.699188,453.389923 
	C266.610229,452.846771 258.457184,453.258759 250.331772,453.258759 
	C250.094818,453.740906 249.857864,454.223053 249.620911,454.705200 
	C251.341766,455.746185 253.062637,456.787201 255.050034,457.989441 
	C255.050034,469.224396 255.050034,480.828552 255.050034,492.634064 
	C254.247147,492.796600 253.557678,492.786591 253.031372,493.074677 
	C252.015121,493.630951 251.090958,494.355438 250.128632,495.010223 
	C251.234695,495.629822 252.311844,496.712341 253.452164,496.783569 
	C257.103882,497.011658 260.783844,496.965302 264.441559,496.789459 
	C265.304291,496.747955 266.122650,495.783569 266.961426,495.243774 
	C266.419983,494.554260 266.013214,493.575409 265.304413,493.245544 
	C264.333252,492.793549 263.132812,492.834167 261.636841,492.602722 
	C261.636841,488.850677 261.615082,485.381042 261.649353,481.911957 
	C261.660431,480.790649 261.818451,479.670807 261.904541,478.608429 
	C273.087860,477.428345 272.069916,476.526123 278.054779,492.557953 
	C277.624542,492.726624 277.152618,492.832581 276.769073,493.077118 
	C275.691101,493.764465 274.649536,494.508850 273.593628,495.230743 
	C274.769531,495.777191 275.921265,496.721558 277.125946,496.794830 
	C280.612488,497.006866 284.126678,496.986511 287.615967,496.797699 
	C288.691589,496.739502 289.722015,495.846558 290.773132,495.335815 
	C289.909119,494.578949 289.115082,493.715149 288.163361,493.092407 
	C286.987122,492.322815 285.679871,491.753448 284.109711,490.376862 
M458.844116,496.856293 
	C466.482849,496.568481 474.205322,496.887054 481.740204,495.846863 
	C492.329773,494.385010 498.582367,486.285919 498.923248,475.144623 
	C499.259918,464.140259 494.241241,455.926270 484.327972,454.323761 
	C474.790741,452.782043 464.955994,453.081085 455.251953,452.571289 
	C455.019684,453.342682 454.787415,454.114044 454.555115,454.885406 
	C456.331818,455.847687 458.108521,456.809967 459.934814,457.799103 
	C459.934814,469.317139 459.934814,480.922119 459.934814,491.743073 
	C457.954559,493.103210 456.508759,494.096283 455.062927,495.089386 
	C456.019073,495.677887 456.975220,496.266357 458.844116,496.856293 
M524.579468,478.496338 
	C524.579468,483.122284 524.579468,487.748260 524.579468,492.603577 
	C523.155334,492.839783 522.068359,492.759644 521.303772,493.217651 
	C520.482605,493.709625 519.964294,494.707062 519.313904,495.483978 
	C520.090393,495.938416 520.863770,496.782227 521.643921,496.788544 
	C532.389221,496.875519 543.135559,496.847260 553.993164,496.847260 
	C553.993164,493.075867 553.993164,489.969788 553.993164,486.863708 
	C553.622620,486.535645 553.252136,486.207611 552.881592,485.879578 
	C551.618835,487.022827 550.313721,488.123505 549.107117,489.323212 
	C548.186890,490.238068 547.435120,492.081299 546.533508,492.130157 
	C541.454041,492.405609 536.351868,492.263092 531.151855,492.263092 
	C531.151855,486.881592 531.151855,482.140411 531.151855,476.919983 
	C536.990051,476.919983 542.572998,476.919983 548.041687,476.919983 
	C549.132385,473.843353 548.697266,472.333771 545.464600,472.412018 
	C540.719421,472.526947 535.969360,472.441650 531.157959,472.441650 
	C531.157959,467.078369 531.157959,462.482147 531.157959,457.403839 
	C535.718567,457.403839 540.024902,457.203278 544.290466,457.532135 
	C545.493774,457.624878 547.336487,459.106537 547.576050,460.230438 
	C548.340149,463.814941 550.360535,463.078156 552.616089,462.648315 
	C552.616089,459.330170 552.616089,456.402008 552.616089,453.266235 
	C541.430237,453.266235 530.518555,453.266235 519.606873,453.266235 
	C519.354797,453.740021 519.102661,454.213806 518.850525,454.687561 
	C520.561035,455.740540 522.271545,456.793518 524.579956,458.214539 
	C524.579956,464.234772 524.579956,470.865967 524.579468,478.496338 
M330.428009,476.965363 
	C332.942932,475.915619 338.234344,479.704437 337.817139,472.271942 
	C331.769653,472.271942 326.060913,472.271942 320.349182,472.271942 
	C320.349182,467.012054 320.349182,462.412506 320.349182,457.394073 
	C324.929596,457.394073 329.248779,457.203278 333.531128,457.516388 
	C334.734100,457.604370 336.610596,459.014557 336.829010,460.091797 
	C337.530243,463.550323 339.469055,463.161926 341.678650,462.679565 
	C341.678650,459.283508 341.678650,456.233978 341.678650,453.271362 
	C330.516937,453.271362 319.759003,453.271362 309.001038,453.271362 
	C308.761902,453.743408 308.522766,454.215454 308.283630,454.687500 
	C309.986023,455.730804 311.688416,456.774109 313.661316,457.983215 
	C313.661316,469.208618 313.661316,480.951202 313.661316,492.771484 
	C312.392456,492.931763 311.297852,492.833405 310.457245,493.248871 
	C309.748260,493.599274 308.894104,494.565826 308.923340,495.223206 
	C308.948517,495.788483 310.126740,496.763702 310.802277,496.769806 
	C321.573639,496.867737 332.346222,496.838837 343.398254,496.838837 
	C343.398254,493.240051 343.398254,490.164185 343.398254,487.050751 
	C337.728394,484.472565 339.165924,490.371368 337.494141,491.964050 
	C331.584290,491.964050 326.011536,491.964050 320.334259,491.964050 
	C320.334259,486.873474 320.334259,482.130676 320.334259,476.965363 
	C323.551178,476.965363 326.509369,476.965363 330.428009,476.965363 
M393.821442,491.111542 
	C397.518829,482.323730 395.142853,476.615784 386.332916,473.372955 
	C383.059235,472.167999 379.385742,471.700348 376.492767,469.922882 
	C374.271301,468.558014 371.900360,465.827850 371.542694,463.416107 
	C371.010559,459.828247 374.252319,458.039307 377.591797,457.341858 
	C379.041992,457.039001 380.563690,457.033051 382.055878,456.985382 
	C385.669769,456.869965 388.573578,457.450104 389.160614,462.040009 
	C389.308502,463.196320 391.749756,464.059326 393.863312,465.579376 
	C393.863312,460.867279 393.863312,457.737366 393.863312,453.337250 
	C388.062622,453.125092 382.306000,452.287231 376.694794,452.864075 
	C369.255524,453.628906 365.367035,457.797028 364.984772,463.677673 
	C364.578674,469.924530 367.503418,473.453156 375.121887,475.896759 
	C378.285858,476.911530 381.851929,477.325775 384.492889,479.111115 
	C386.601837,480.536804 388.415619,483.479187 388.864716,486.013428 
	C389.458435,489.363831 386.826447,491.551270 383.521149,492.065186 
	C380.603394,492.518829 377.601562,492.663422 374.646759,492.582581 
	C371.598114,492.499176 369.397583,491.337372 368.811218,487.714569 
	C368.617859,486.519836 366.305359,485.668091 363.919617,483.877167 
	C363.919617,487.745789 363.760101,489.740814 363.974609,491.694733 
	C364.122528,493.042206 364.379944,494.945984 365.287903,495.550323 
	C371.644623,499.781403 387.669281,497.464172 393.821442,491.111542 
M658.681213,453.008453 
	C645.902649,456.927887 640.136597,466.313873 642.253906,479.748718 
	C644.121948,491.602356 652.067261,497.708099 665.413635,497.475403 
	C667.571350,497.437744 669.733093,497.225311 671.878967,496.974304 
	C680.713867,495.940704 681.781799,494.470337 680.063293,483.827209 
	C678.221741,485.646606 676.923645,486.686462 675.944336,487.969604 
	C675.086121,489.094055 674.919922,491.034851 673.872375,491.678833 
	C667.967041,495.309509 655.586304,492.352417 651.595825,486.583771 
	C647.415283,480.540375 647.421265,469.444397 651.608337,463.365479 
	C655.347900,457.936310 662.849792,455.699249 670.947876,457.383240 
	C673.501282,457.914185 675.178528,458.772797 675.351257,461.718323 
	C675.544067,465.006775 677.393799,465.881531 680.328735,464.581299 
	C681.411011,454.756012 681.011719,454.007324 671.378357,452.785034 
	C667.490906,452.291809 663.470947,452.842529 658.681213,453.008453 
M739.039612,455.035767 
	C738.365295,454.363129 737.741394,453.183197 737.007568,453.110352 
	C734.535217,452.864990 732.004883,452.827209 729.534241,453.078674 
	C727.973999,453.237457 726.480591,454.053223 724.957214,454.574310 
	C726.122620,455.633087 727.287964,456.691833 728.731262,458.003052 
	C725.822937,463.118927 722.727417,468.564148 719.206421,474.757874 
	C715.636292,468.685242 712.391296,463.165558 709.299011,457.905609 
	C711.076721,456.688629 712.623718,455.629578 714.170715,454.570526 
	C703.754211,451.970581 699.373962,452.710938 698.541138,455.740326 
	C705.642578,459.184998 706.947388,466.970978 711.339172,472.317474 
	C716.423218,478.506653 716.734375,485.419220 715.426147,492.846039 
	C713.668884,492.977905 712.109558,492.859863 710.717407,493.286957 
	C709.873596,493.545837 709.288635,494.648499 708.587402,495.372070 
	C709.311157,495.862000 710.026550,496.761749 710.760071,496.776794 
	C716.416199,496.892822 722.077148,496.891937 727.732971,496.766174 
	C728.442261,496.750397 729.130615,495.795227 729.828735,495.275330 
	C729.105347,494.579987 728.482544,493.487183 727.637268,493.273132 
	C725.950012,492.845795 724.140747,492.900604 722.451843,492.761993 
	C721.460205,485.192200 721.615234,478.472137 726.248718,472.402527 
	C728.650818,469.255951 730.085327,465.378754 732.428345,462.176514 
	C734.181946,459.779846 736.689087,457.934570 739.039612,455.035767 
M762.554077,474.999359 
	C760.721924,474.999542 758.877136,475.137299 757.060425,474.969910 
	C753.728943,474.662933 753.623047,476.303986 754.394348,478.998627 
	C791.203979,478.998627 827.825623,479.021454 864.446655,478.877838 
	C865.444763,478.873901 866.435791,477.076263 867.430176,476.115112 
	C867.091248,475.743195 866.752258,475.371277 866.413330,474.999359 
	C832.123230,474.999359 797.833191,474.999359 762.554077,474.999359 
M167.500000,479.000641 
	C184.273361,479.000641 201.046738,479.000641 217.643951,479.000641 
	C219.029358,473.942902 215.693695,475.022644 213.459396,475.020691 
	C178.650681,474.990204 143.841904,474.996552 109.033157,475.010315 
	C107.743988,475.010803 106.454880,475.173004 105.310829,475.250061 
	C104.017914,479.432312 106.644890,479.014679 109.040588,479.012115 
	C128.193695,478.991516 147.346863,479.000641 167.500000,479.000641 
M434.100647,495.542847 
	C432.348083,494.304199 430.595551,493.065521 428.362030,491.486938 
	C428.362030,480.632538 428.362030,468.918274 428.362030,458.035553 
	C430.813934,456.676300 432.665070,455.650085 434.516205,454.623871 
	C434.279877,454.204071 434.043549,453.784241 433.807220,453.364441 
	C427.936768,453.364441 422.066345,453.364441 416.195892,453.364441 
	C415.996033,453.919159 415.796204,454.473846 415.596375,455.028564 
	C417.587067,455.896698 419.577759,456.764832 421.654205,457.670349 
	C421.654205,469.263336 421.654205,480.990051 421.654205,491.786621 
	C419.265533,493.156494 417.509460,494.163544 415.753387,495.170624 
	C415.994354,495.570038 416.235291,495.969452 416.476227,496.368866 
	C422.237854,496.368866 427.999451,496.368866 434.100647,495.542847 
z"/>
<path fill="#EB001C" opacity="1.000000" stroke="none" 
	d="
M522.944702,146.991516 
	C524.044189,148.381134 525.007446,149.909927 526.263672,151.139420 
	C544.117920,168.614441 562.011780,186.048965 579.399719,203.009048 
	C547.605469,234.993851 516.846375,265.937317 486.230621,296.736542 
	C455.536163,265.839935 424.801880,234.903244 394.116150,204.015427 
	C411.617523,186.500687 429.919037,168.185226 448.264435,149.825821 
	C442.996887,144.697540 438.264099,140.089874 433.498322,135.450104 
	C400.145874,168.602631 366.505310,202.041550 332.429626,235.912949 
	C332.301971,234.427628 332.132874,233.373215 332.132233,232.318710 
	C332.117310,208.153168 332.067902,183.987305 332.213806,159.822647 
	C332.226440,157.730927 332.965057,155.081741 334.352753,153.642670 
	C365.933533,120.893021 397.651581,88.275726 429.351624,55.641121 
	C429.573914,55.412254 429.903046,55.287144 429.534790,55.515987 
	C451.869781,77.411407 474.075409,99.179993 496.705383,121.275894 
	C504.753998,128.543900 512.378296,135.484589 519.570312,142.716919 
	C519.763367,143.692703 520.388733,144.376846 521.002441,145.033691 
	C520.990845,145.006424 520.947693,144.965698 520.927368,145.296326 
	C521.282654,145.768539 521.658325,145.910126 522.016113,146.026657 
	C521.998291,146.001587 521.948303,145.965790 521.924805,146.297699 
	C522.278809,146.770172 522.656311,146.910751 523.015991,147.029663 
	C522.998230,147.008011 522.944702,146.991516 522.944702,146.991516 
M471.537323,219.961075 
	C476.284973,224.770569 481.032593,229.580078 485.148163,233.749283 
	C493.381927,225.511948 501.097229,217.793259 508.232605,210.654755 
	C500.880493,203.310303 493.159790,195.597672 485.063934,187.510269 
	C481.622223,191.061478 477.897736,195.073868 473.985229,198.893707 
	C470.097717,202.689133 466.021149,206.290924 461.275330,210.672012 
	C465.126038,214.138809 468.081543,216.799622 471.537323,219.961075 
z"/>
<path fill="#EB011C" opacity="1.000000" stroke="none" 
	d="
M520.002625,142.425293 
	C512.378296,135.484589 504.753998,128.543900 497.116669,121.630081 
	C495.468170,119.112114 494.040070,116.395905 492.126526,114.080910 
	C490.784790,112.457710 488.780975,111.381790 487.010803,110.013496 
	C506.042450,91.457649 524.239258,73.715736 542.591736,55.822060 
	C561.220276,74.870979 580.794495,94.873955 600.353333,114.891899 
	C612.580994,127.406540 624.815125,139.915176 636.956726,152.512878 
	C638.239258,153.843567 639.740784,155.751419 639.752136,157.401077 
	C639.928406,183.021439 639.875366,208.643387 639.875366,235.243927 
	C606.171631,200.970642 573.087585,167.327515 539.054565,132.719345 
	C534.483398,137.811798 531.403687,141.516800 527.986877,144.879227 
	C526.983948,145.866196 525.024536,145.881165 523.224121,146.666580 
	C522.944702,146.991516 522.998230,147.008011 523.207275,146.617859 
	C522.927002,146.140411 522.437683,146.053101 521.948303,145.965790 
	C521.948303,145.965790 521.998291,146.001587 522.207458,145.614609 
	C521.927002,145.140320 521.437317,145.053009 520.947693,144.965698 
	C520.947693,144.965698 520.990845,145.006424 521.323120,144.724319 
	C521.104431,143.769913 520.553528,143.097595 520.002625,142.425293 
z"/>
<path fill="#595A5C" opacity="1.000000" stroke="none" 
	d="
M121.047951,401.998535 
	C121.047958,407.801727 121.047958,413.105255 121.047958,418.715729 
	C115.680168,418.715729 110.610924,418.715729 104.858002,418.715729 
	C104.858002,413.328156 104.858002,407.909027 104.858002,402.489899 
	C104.858002,397.218597 104.858002,391.947296 104.858002,386.675995 
	C104.537514,386.516327 104.217026,386.356659 103.896545,386.197021 
	C97.345062,394.589752 90.793587,402.982513 83.851250,411.875946 
	C76.988708,403.041534 70.496262,394.683533 63.346138,385.478882 
	C63.346138,397.034515 63.346138,407.662659 63.346138,418.656311 
	C57.632874,418.656311 52.431541,418.656311 47.022942,418.656311 
	C47.022942,392.582367 47.022942,366.603363 47.022942,339.509033 
	C59.608536,355.201324 71.528236,370.063385 83.847237,385.423279 
	C96.071671,370.182312 108.088959,355.199585 121.047943,339.042786 
	C121.047943,360.782166 121.047943,381.140472 121.047951,401.998535 
z"/>
<path fill="#5A5B5D" opacity="1.000000" stroke="none" 
	d="
M218.130798,382.826324 
	C216.586975,402.088837 202.327896,417.084625 183.429932,419.752991 
	C165.317825,422.310394 147.300888,411.360413 140.733109,393.803650 
	C134.137894,376.173615 140.780136,356.553894 156.864670,346.154480 
	C172.427795,336.092163 193.114288,338.413055 206.416992,351.648285 
	C214.952621,360.140625 218.750153,370.400543 218.130798,382.826324 
M174.417084,403.154999 
	C190.314514,405.664917 204.423203,391.947601 201.685913,376.642609 
	C199.502075,364.432129 189.276077,355.774109 177.648651,356.291077 
	C165.892319,356.813751 156.161804,365.658264 154.931213,376.940063 
	C153.538177,389.710907 160.820267,399.885406 174.417084,403.154999 
z"/>
<path fill="#5B5C5E" opacity="1.000000" stroke="none" 
	d="
M585.734985,384.262268 
	C583.719055,382.032135 581.956177,380.049896 580.193237,378.067688 
	C579.801697,378.235779 579.410217,378.403870 579.018677,378.571960 
	C579.018677,391.868622 579.018677,405.165283 579.018677,418.741486 
	C573.147400,418.741486 567.926819,418.741486 562.445801,418.741486 
	C562.445801,392.498199 562.445801,366.463226 562.445801,339.179688 
	C577.441711,353.845612 591.739807,367.829041 606.677246,382.437805 
	C606.677246,368.345947 606.677246,355.008026 606.677246,341.308350 
	C612.391479,341.308350 617.619446,341.308350 623.108032,341.308350 
	C623.108032,367.355255 623.108032,393.430206 623.108032,420.703735 
	C610.306152,408.221436 598.147034,396.365814 585.734985,384.262268 
z"/>
<path fill="#5B5C5E" opacity="1.000000" stroke="none" 
	d="
M342.041382,391.959412 
	C337.541168,386.856750 333.296173,382.001129 329.051178,377.145477 
	C328.463898,377.616699 327.876648,378.087952 327.289368,378.559174 
	C327.289368,391.791260 327.289368,405.023315 327.289368,418.642853 
	C321.747772,418.642853 316.544556,418.642853 311.072144,418.642853 
	C311.072144,392.544525 311.072144,366.501221 311.072144,339.344727 
	C325.884125,353.836945 340.078613,367.725006 355.027100,382.350769 
	C355.027100,368.216553 355.027100,354.909973 355.027100,341.278137 
	C360.886169,341.278137 366.104309,341.278137 371.605225,341.278137 
	C371.605225,367.428436 371.605225,393.481964 371.605225,420.752563 
	C361.416382,410.828796 351.856506,401.517609 342.041382,391.959412 
z"/>
<path fill="#5A5B5D" opacity="1.000000" stroke="none" 
	d="
M505.916321,419.031097 
	C494.904236,419.031067 494.903198,419.031494 490.746063,409.146271 
	C486.178253,398.284485 481.612518,387.421783 476.649139,375.615723 
	C471.910065,386.865723 467.502380,397.261932 463.149139,407.680939 
	C458.408966,419.026093 458.431061,419.035248 445.969177,419.031189 
	C444.151733,419.030609 442.334320,419.031097 439.911163,419.031097 
	C443.026886,407.964172 446.014679,397.323120 449.019379,386.686859 
	C452.045654,375.974304 455.088837,365.266510 458.398346,353.591064 
	C459.854675,356.500427 460.954559,358.697723 462.476837,361.738831 
	C467.265656,349.721771 471.725861,338.529266 476.624512,326.236542 
	C482.381348,340.678162 487.786896,354.238678 493.393829,368.304230 
	C494.237823,366.481750 494.853271,365.152771 495.837677,363.027069 
	C501.763947,381.928162 507.493561,400.201904 513.397278,419.031097 
	C510.656281,419.031097 508.525940,419.031097 505.916321,419.031097 
z"/>
<path fill="#5B5C5E" opacity="1.000000" stroke="none" 
	d="
M251.076050,380.983124 
	C251.082748,384.975800 250.904236,388.484192 251.135132,391.965454 
	C251.597656,398.938843 256.972565,403.787476 263.681915,403.534882 
	C270.302063,403.285645 275.161163,398.552643 275.242645,391.610718 
	C275.416504,376.795624 275.307953,361.977173 275.314880,347.160095 
	C275.315704,345.347351 275.315002,343.534576 275.315002,341.336426 
	C280.826111,341.336426 286.036438,341.336426 291.907593,341.336426 
	C291.907593,342.854126 291.907867,344.452545 291.907562,346.050995 
	C291.904449,361.201111 292.035004,376.352783 291.859985,391.500916 
	C291.688721,406.325043 280.729584,418.294189 266.200012,419.925903 
	C252.109634,421.508331 238.694290,411.849548 235.457825,397.783905 
	C235.271652,396.974762 235.020950,396.150574 235.019806,395.333099 
	C234.994659,377.391296 235.000610,359.449493 235.000610,341.225861 
	C240.269958,341.225861 245.349319,341.225861 251.076035,341.225861 
	C251.076035,354.319855 251.076035,367.403198 251.076050,380.983124 
z"/>
<path fill="#5B5C5E" opacity="1.000000" stroke="none" 
	d="
M679.113647,356.004761 
	C679.113647,350.869568 679.113647,346.233459 679.113647,341.419098 
	C691.044128,341.419098 702.741638,340.373505 714.166565,341.691162 
	C727.602783,343.240753 735.071899,354.653503 733.986816,368.923370 
	C732.983887,382.113342 723.466858,390.946716 709.373291,391.598511 
	C705.074890,391.797333 700.759521,391.629364 695.951965,391.629364 
	C695.951965,400.731354 695.951965,409.478027 695.951965,418.625031 
	C690.248962,418.625031 685.031067,418.625031 679.113586,418.625031 
	C679.113586,398.006897 679.113586,377.255371 679.113647,356.004761 
M695.741272,373.363708 
	C696.556519,373.936218 697.351501,374.965637 698.190491,375.002869 
	C702.007080,375.172028 705.846741,375.237823 709.657959,375.007782 
	C714.441162,374.719116 717.548706,371.289337 717.743713,366.518921 
	C717.927490,362.021973 715.299377,358.120972 710.745178,357.616699 
	C705.897217,357.079895 700.943787,357.495880 695.710083,357.495880 
	C695.710083,362.774261 695.710083,367.580841 695.741272,373.363708 
z"/>
<path fill="#5A5B5D" opacity="1.000000" stroke="none" 
	d="
M753.975586,413.991333 
	C753.149353,415.875671 752.450317,417.372620 751.754456,418.862610 
	C745.815979,418.862610 740.020630,418.862610 733.417114,418.862610 
	C745.575012,392.355530 757.529907,366.290833 770.060120,338.972015 
	C782.493103,366.041992 794.469727,392.118256 806.826721,419.022675 
	C800.720154,419.022675 795.453979,419.282837 790.247681,418.839752 
	C788.946777,418.729004 787.186401,416.533020 786.759827,414.985870 
	C785.266907,409.571777 782.162903,407.695709 776.580383,408.353241 
	C771.815430,408.914520 766.904480,408.788025 762.109009,408.374878 
	C757.778931,408.001831 755.066162,409.240326 753.975586,413.991333 
M767.712830,381.163116 
	C766.018433,385.224976 764.324097,389.286835 762.524109,393.601807 
	C767.805298,393.601807 772.417725,393.601807 777.645264,393.601807 
	C775.122009,387.591431 772.836548,382.147644 770.154602,375.759369 
	C769.064880,378.098358 768.520142,379.267639 767.712830,381.163116 
z"/>
<path fill="#5B5C5E" opacity="1.000000" stroke="none" 
	d="
M838.852295,419.998352 
	C824.654785,419.737976 815.059937,412.777771 811.397461,399.966431 
	C816.067200,397.810699 820.825989,395.613861 825.953552,393.246796 
	C826.658264,394.946228 827.167419,396.455292 827.886475,397.856689 
	C830.273926,402.509796 835.428650,405.122711 839.943909,403.028259 
	C842.431946,401.874207 845.182312,399.072052 845.711975,396.568146 
	C846.187195,394.321991 844.459229,390.617310 842.504700,389.068146 
	C839.056458,386.334961 834.542725,384.996613 830.760071,382.620636 
	C826.866333,380.174896 822.718201,377.709900 819.741211,374.322052 
	C814.424194,368.271149 814.178711,357.533661 818.534729,350.362762 
	C823.604248,342.017120 831.494751,339.141998 840.766113,340.164581 
	C849.687683,341.148590 855.985596,345.998718 859.700317,354.848480 
	C854.829895,357.044800 850.336792,359.070984 845.905212,361.069427 
	C844.635193,359.624298 843.693726,358.216461 842.438782,357.192902 
	C839.579834,354.861298 834.890015,355.272705 833.060730,358.016479 
	C830.663513,361.611938 832.196777,364.541199 835.379822,366.440063 
	C839.650818,368.987976 844.217529,371.036469 848.629211,373.352905 
	C855.223022,376.815155 860.316528,381.596588 861.992310,389.190887 
	C865.549866,405.312775 856.227173,417.940460 838.852295,419.998352 
z"/>
<path fill="#5B5C5E" opacity="1.000000" stroke="none" 
	d="
M897.681702,366.242004 
	C901.963318,368.549347 905.913818,370.677582 909.927307,372.679474 
	C922.256531,378.829163 927.143799,387.896210 924.881226,400.554840 
	C922.998352,411.089447 914.195190,418.891846 903.000793,419.947906 
	C890.820984,421.096954 879.413696,414.311920 875.015991,403.283600 
	C874.654724,402.377655 874.409851,401.425323 873.942688,399.970703 
	C878.783508,397.775818 883.551331,395.614014 888.567383,393.339661 
	C889.356567,395.114227 889.926575,396.649139 890.695190,398.077240 
	C893.079407,402.507050 898.094055,405.103027 902.397827,403.089355 
	C905.025452,401.859985 907.874878,398.991211 908.534912,396.338806 
	C909.062622,394.217804 907.089355,390.423828 905.072815,388.943329 
	C901.108704,386.033020 896.351562,384.197571 891.906738,381.948608 
	C881.929626,376.900421 877.014893,368.649292 878.359314,359.158356 
	C879.865417,348.526794 886.825562,341.471405 897.141968,340.118713 
	C908.154541,338.674683 917.606750,344.057648 922.249512,354.891937 
	C917.811584,356.907990 913.349243,358.935150 908.921509,360.946594 
	C903.423340,355.521240 899.173645,354.235046 896.334778,357.359314 
	C893.512024,360.465912 894.458557,363.430847 897.681702,366.242004 
z"/>
<path fill="#5C5D5F" opacity="1.000000" stroke="none" 
	d="
M418.761444,419.033020 
	C414.146423,419.035004 410.006897,419.035004 405.333527,419.035004 
	C405.333527,398.457916 405.333527,378.231750 405.333527,357.418915 
	C398.758453,357.418915 392.699005,357.418915 386.401245,357.418915 
	C386.401245,351.750092 386.401245,346.672058 386.401245,341.265717 
	C404.418030,341.265717 422.307953,341.265717 440.532654,341.265717 
	C440.532654,346.332214 440.532654,351.416687 440.532654,357.074677 
	C434.580353,357.074677 428.519135,357.074677 421.862335,357.074677 
	C421.862335,359.430450 421.862335,361.220276 421.862335,363.010132 
	C421.862274,380.158447 421.893433,397.306885 421.816772,414.454834 
	C421.808563,416.285370 423.059082,419.196442 418.761444,419.033020 
z"/>
<path fill="#58595B" opacity="1.000000" stroke="none" 
	d="
M542.999573,379.000000 
	C542.999573,392.446716 542.999573,405.393433 542.999573,418.669006 
	C537.375793,418.669006 531.992004,418.669006 526.302124,418.669006 
	C526.302124,392.684723 526.302124,366.674103 526.302124,340.331451 
	C531.623169,340.331451 537.006958,340.331451 542.999573,340.331451 
	C542.999573,353.031281 542.999573,365.765656 542.999573,379.000000 
z"/>
<path fill="#616264" opacity="1.000000" stroke="none" 
	d="
M612.409180,496.852203 
	C610.522949,495.717010 608.645386,494.861633 607.648682,493.403900 
	C600.610535,483.110687 593.753357,472.693695 586.184082,461.334167 
	C586.184082,472.318848 586.184082,482.247345 586.184082,491.995911 
	C587.878662,493.061310 589.625671,494.159668 591.372620,495.258026 
	C591.115784,495.711365 590.858887,496.164734 590.602051,496.618103 
	C585.499756,496.618103 580.397461,496.618103 575.295166,496.618103 
	C575.042297,496.152039 574.789368,495.685944 574.536438,495.219879 
	C576.177795,494.161926 577.819153,493.103943 579.862610,491.786774 
	C579.862610,480.777405 579.862610,469.167725 579.862610,457.883728 
	C577.912781,456.721710 576.180176,455.689148 573.670898,454.193726 
	C575.440125,453.326050 575.717102,453.112000 576.024536,453.050873 
	C584.526733,451.361176 590.139587,454.239532 594.308044,462.282440 
	C598.791260,470.932800 604.845459,478.768921 611.001648,488.161743 
	C611.001648,477.097748 611.001648,467.358215 611.001648,457.741821 
	C609.316956,456.748596 607.587402,455.728943 605.857849,454.709259 
	C606.099426,454.227448 606.340942,453.745605 606.582520,453.263763 
	C611.683716,453.263763 616.784912,453.263763 621.886108,453.263763 
	C622.148804,453.673828 622.411560,454.083923 622.674255,454.493988 
	C621.002930,455.613159 619.331665,456.732361 616.999084,458.294373 
	C616.999084,469.210785 616.876038,481.015350 617.076843,492.814423 
	C617.134399,496.191345 616.009460,497.360626 612.409180,496.852203 
z"/>
<path fill="#656668" opacity="1.000000" stroke="none" 
	d="
M284.269470,490.737183 
	C285.679871,491.753448 286.987122,492.322815 288.163361,493.092407 
	C289.115082,493.715149 289.909119,494.578949 290.773132,495.335815 
	C289.722015,495.846558 288.691589,496.739502 287.615967,496.797699 
	C284.126678,496.986511 280.612488,497.006866 277.125946,496.794830 
	C275.921265,496.721558 274.769531,495.777191 273.593628,495.230743 
	C274.649536,494.508850 275.691101,493.764465 276.769073,493.077118 
	C277.152618,492.832581 277.624542,492.726624 278.054779,492.557953 
	C272.069916,476.526123 273.087860,477.428345 261.904541,478.608429 
	C261.818451,479.670807 261.660431,480.790649 261.649353,481.911957 
	C261.615082,485.381042 261.636841,488.850677 261.636841,492.602722 
	C263.132812,492.834167 264.333252,492.793549 265.304413,493.245544 
	C266.013214,493.575409 266.419983,494.554260 266.961426,495.243774 
	C266.122650,495.783569 265.304291,496.747955 264.441559,496.789459 
	C260.783844,496.965302 257.103882,497.011658 253.452164,496.783569 
	C252.311844,496.712341 251.234695,495.629822 250.128632,495.010193 
	C251.090958,494.355438 252.015121,493.630951 253.031372,493.074677 
	C253.557678,492.786591 254.247147,492.796600 255.050034,492.634064 
	C255.050034,480.828552 255.050034,469.224396 255.050034,457.989441 
	C253.062637,456.787201 251.341766,455.746185 249.620911,454.705200 
	C249.857864,454.223053 250.094818,453.740906 250.331772,453.258759 
	C258.457184,453.258759 266.610229,452.846771 274.699188,453.389923 
	C281.103638,453.819916 284.558014,457.315369 285.439972,462.764679 
	C286.498657,469.305908 283.314514,473.587708 277.851898,476.287964 
	C279.962006,481.038666 282.035858,485.707764 284.269470,490.737183 
M272.302795,473.124268 
	C276.716339,472.377502 278.941620,469.793274 279.077759,465.291656 
	C279.181671,461.855530 277.779785,459.135040 274.486359,458.505768 
	C270.392059,457.723389 266.135498,457.790192 261.908875,457.487396 
	C261.908875,463.421600 261.908875,468.343475 261.908875,473.929443 
	C265.303589,473.699127 268.391266,473.489624 272.302795,473.124268 
z"/>
<path fill="#626365" opacity="1.000000" stroke="none" 
	d="
M458.387756,496.855560 
	C456.975220,496.266357 456.019073,495.677887 455.062927,495.089386 
	C456.508759,494.096283 457.954559,493.103210 459.934814,491.743073 
	C459.934814,480.922119 459.934814,469.317139 459.934814,457.799103 
	C458.108521,456.809967 456.331818,455.847687 454.555115,454.885406 
	C454.787415,454.114044 455.019684,453.342682 455.251953,452.571289 
	C464.955994,453.081085 474.790741,452.782043 484.327972,454.323761 
	C494.241241,455.926270 499.259918,464.140259 498.923248,475.144623 
	C498.582367,486.285919 492.329773,494.385010 481.740204,495.846863 
	C474.205322,496.887054 466.482849,496.568481 458.387756,496.855560 
M466.386078,461.877686 
	C466.386078,471.825043 466.386078,481.772400 466.386078,491.621246 
	C485.412445,494.611145 494.718414,486.381897 491.987274,469.566162 
	C490.981262,463.371887 487.243225,459.215790 481.066803,458.168213 
	C477.319092,457.532532 473.447296,457.656342 469.640259,457.332916 
	C466.836426,457.094727 466.155243,458.580017 466.386078,461.877686 
z"/>
<path fill="#626365" opacity="1.000000" stroke="none" 
	d="
M524.579712,477.996735 
	C524.579956,470.865967 524.579956,464.234772 524.579956,458.214539 
	C522.271545,456.793518 520.561035,455.740540 518.850525,454.687561 
	C519.102661,454.213806 519.354797,453.740021 519.606873,453.266235 
	C530.518555,453.266235 541.430237,453.266235 552.616089,453.266235 
	C552.616089,456.402008 552.616089,459.330170 552.616089,462.648315 
	C550.360535,463.078156 548.340149,463.814941 547.576050,460.230438 
	C547.336487,459.106537 545.493774,457.624878 544.290466,457.532135 
	C540.024902,457.203278 535.718567,457.403839 531.157959,457.403839 
	C531.157959,462.482147 531.157959,467.078369 531.157959,472.441650 
	C535.969360,472.441650 540.719421,472.526947 545.464600,472.412018 
	C548.697266,472.333771 549.132385,473.843353 548.041687,476.919983 
	C542.572998,476.919983 536.990051,476.919983 531.151855,476.919983 
	C531.151855,482.140411 531.151855,486.881592 531.151855,492.263092 
	C536.351868,492.263092 541.454041,492.405609 546.533508,492.130157 
	C547.435120,492.081299 548.186890,490.238068 549.107117,489.323212 
	C550.313721,488.123505 551.618835,487.022827 552.881592,485.879578 
	C553.252136,486.207611 553.622620,486.535645 553.993164,486.863708 
	C553.993164,489.969788 553.993164,493.075867 553.993164,496.847260 
	C543.135559,496.847260 532.389221,496.875519 521.643921,496.788544 
	C520.863770,496.782227 520.090393,495.938416 519.313904,495.483978 
	C519.964294,494.707062 520.482605,493.709625 521.303772,493.217651 
	C522.068359,492.759644 523.155334,492.839783 524.579468,492.603577 
	C524.579468,487.748260 524.579468,483.122284 524.579712,477.996735 
z"/>
<path fill="#606163" opacity="1.000000" stroke="none" 
	d="
M329.947815,476.965363 
	C326.509369,476.965363 323.551178,476.965363 320.334259,476.965363 
	C320.334259,482.130676 320.334259,486.873474 320.334259,491.964050 
	C326.011536,491.964050 331.584290,491.964050 337.494141,491.964050 
	C339.165924,490.371368 337.728394,484.472565 343.398254,487.050751 
	C343.398254,490.164185 343.398254,493.240051 343.398254,496.838837 
	C332.346222,496.838837 321.573639,496.867737 310.802277,496.769806 
	C310.126740,496.763702 308.948517,495.788483 308.923340,495.223206 
	C308.894104,494.565826 309.748260,493.599274 310.457245,493.248871 
	C311.297852,492.833405 312.392456,492.931763 313.661316,492.771484 
	C313.661316,480.951202 313.661316,469.208618 313.661316,457.983215 
	C311.688416,456.774109 309.986023,455.730804 308.283630,454.687500 
	C308.522766,454.215454 308.761902,453.743408 309.001038,453.271362 
	C319.759003,453.271362 330.516937,453.271362 341.678650,453.271362 
	C341.678650,456.233978 341.678650,459.283508 341.678650,462.679565 
	C339.469055,463.161926 337.530243,463.550323 336.829010,460.091797 
	C336.610596,459.014557 334.734100,457.604370 333.531128,457.516388 
	C329.248779,457.203278 324.929596,457.394073 320.349182,457.394073 
	C320.349182,462.412506 320.349182,467.012054 320.349182,472.271942 
	C326.060913,472.271942 331.769653,472.271942 337.817139,472.271942 
	C338.234344,479.704437 332.942932,475.915619 329.947815,476.965363 
z"/>
<path fill="#606163" opacity="1.000000" stroke="none" 
	d="
M393.602173,491.413910 
	C387.669281,497.464172 371.644623,499.781403 365.287903,495.550323 
	C364.379944,494.945984 364.122528,493.042206 363.974609,491.694733 
	C363.760101,489.740814 363.919617,487.745789 363.919617,483.877167 
	C366.305359,485.668091 368.617859,486.519836 368.811218,487.714569 
	C369.397583,491.337372 371.598114,492.499176 374.646759,492.582581 
	C377.601562,492.663422 380.603394,492.518829 383.521149,492.065186 
	C386.826447,491.551270 389.458435,489.363831 388.864716,486.013428 
	C388.415619,483.479187 386.601837,480.536804 384.492889,479.111115 
	C381.851929,477.325775 378.285858,476.911530 375.121887,475.896759 
	C367.503418,473.453156 364.578674,469.924530 364.984772,463.677673 
	C365.367035,457.797028 369.255524,453.628906 376.694794,452.864075 
	C382.306000,452.287231 388.062622,453.125092 393.863312,453.337250 
	C393.863312,457.737366 393.863312,460.867279 393.863312,465.579376 
	C391.749756,464.059326 389.308502,463.196320 389.160614,462.040009 
	C388.573578,457.450104 385.669769,456.869965 382.055878,456.985382 
	C380.563690,457.033051 379.041992,457.039001 377.591797,457.341858 
	C374.252319,458.039307 371.010559,459.828247 371.542694,463.416107 
	C371.900360,465.827850 374.271301,468.558014 376.492767,469.922882 
	C379.385742,471.700348 383.059235,472.167999 386.332916,473.372955 
	C395.142853,476.615784 397.518829,482.323730 393.602173,491.413910 
z"/>
<path fill="#606163" opacity="1.000000" stroke="none" 
	d="
M659.096252,452.963318 
	C663.470947,452.842529 667.490906,452.291809 671.378357,452.785034 
	C681.011719,454.007324 681.411011,454.756012 680.328735,464.581299 
	C677.393799,465.881531 675.544067,465.006775 675.351257,461.718323 
	C675.178528,458.772797 673.501282,457.914185 670.947876,457.383240 
	C662.849792,455.699249 655.347900,457.936310 651.608337,463.365479 
	C647.421265,469.444397 647.415283,480.540375 651.595825,486.583771 
	C655.586304,492.352417 667.967041,495.309509 673.872375,491.678833 
	C674.919922,491.034851 675.086121,489.094055 675.944336,487.969604 
	C676.923645,486.686462 678.221741,485.646606 680.063293,483.827209 
	C681.781799,494.470337 680.713867,495.940704 671.878967,496.974304 
	C669.733093,497.225311 667.571350,497.437744 665.413635,497.475403 
	C652.067261,497.708099 644.121948,491.602356 642.253906,479.748718 
	C640.136597,466.313873 645.902649,456.927887 659.096252,452.963318 
z"/>
<path fill="#606163" opacity="1.000000" stroke="none" 
	d="
M738.950195,455.439789 
	C736.689087,457.934570 734.181946,459.779846 732.428345,462.176514 
	C730.085327,465.378754 728.650818,469.255951 726.248718,472.402527 
	C721.615234,478.472137 721.460205,485.192200 722.451843,492.761993 
	C724.140747,492.900604 725.950012,492.845795 727.637268,493.273132 
	C728.482544,493.487183 729.105347,494.579987 729.828735,495.275330 
	C729.130615,495.795227 728.442261,496.750397 727.732971,496.766174 
	C722.077148,496.891937 716.416199,496.892822 710.760071,496.776794 
	C710.026550,496.761749 709.311157,495.862000 708.587402,495.372070 
	C709.288635,494.648499 709.873596,493.545837 710.717407,493.286957 
	C712.109558,492.859863 713.668884,492.977905 715.426147,492.846039 
	C716.734375,485.419220 716.423218,478.506653 711.339172,472.317474 
	C706.947388,466.970978 705.642578,459.184998 698.541138,455.740326 
	C699.373962,452.710938 703.754211,451.970581 714.170715,454.570526 
	C712.623718,455.629578 711.076721,456.688629 709.299011,457.905609 
	C712.391296,463.165558 715.636292,468.685242 719.206421,474.757874 
	C722.727417,468.564148 725.822937,463.118927 728.731262,458.003052 
	C727.287964,456.691833 726.122620,455.633087 724.957214,454.574310 
	C726.480591,454.053223 727.973999,453.237457 729.534241,453.078674 
	C732.004883,452.827209 734.535217,452.864990 737.007568,453.110352 
	C737.741394,453.183197 738.365295,454.363129 738.950195,455.439789 
z"/>
<path fill="#EB001C" opacity="1.000000" stroke="none" 
	d="
M763.048584,474.999359 
	C797.833191,474.999359 832.123230,474.999359 866.413330,474.999359 
	C866.752258,475.371277 867.091248,475.743195 867.430176,476.115112 
	C866.435791,477.076263 865.444763,478.873901 864.446655,478.877838 
	C827.825623,479.021454 791.203979,478.998627 754.394348,478.998627 
	C753.623047,476.303986 753.728943,474.662933 757.060425,474.969910 
	C758.877136,475.137299 760.721924,474.999542 763.048584,474.999359 
z"/>
<path fill="#EB001C" opacity="1.000000" stroke="none" 
	d="
M167.000000,479.000641 
	C147.346863,479.000641 128.193695,478.991516 109.040588,479.012115 
	C106.644890,479.014679 104.017914,479.432312 105.310829,475.250061 
	C106.454880,475.173004 107.743988,475.010803 109.033157,475.010315 
	C143.841904,474.996552 178.650681,474.990204 213.459396,475.020691 
	C215.693695,475.022644 219.029358,473.942902 217.643951,479.000641 
	C201.046738,479.000641 184.273361,479.000641 167.000000,479.000641 
z"/>
<path fill="#5C5D5F" opacity="1.000000" stroke="none" 
	d="
M433.930847,495.955872 
	C427.999451,496.368866 422.237854,496.368866 416.476227,496.368866 
	C416.235291,495.969452 415.994354,495.570038 415.753387,495.170624 
	C417.509460,494.163544 419.265533,493.156494 421.654205,491.786621 
	C421.654205,480.990051 421.654205,469.263336 421.654205,457.670349 
	C419.577759,456.764832 417.587067,455.896698 415.596375,455.028564 
	C415.796204,454.473846 415.996033,453.919159 416.195892,453.364441 
	C422.066345,453.364441 427.936768,453.364441 433.807220,453.364441 
	C434.043549,453.784241 434.279877,454.204071 434.516205,454.623871 
	C432.665070,455.650085 430.813934,456.676300 428.362030,458.035553 
	C428.362030,468.918274 428.362030,480.632538 428.362030,491.486938 
	C430.595551,493.065521 432.348083,494.304199 433.930847,495.955872 
z"/>
<path fill="#FFEFF1" opacity="1.000000" stroke="none" 
	d="
M471.287170,219.710754 
	C468.081543,216.799622 465.126038,214.138809 461.275330,210.672012 
	C466.021149,206.290924 470.097717,202.689133 473.985229,198.893707 
	C477.897736,195.073868 481.622223,191.061478 485.063934,187.510269 
	C493.159790,195.597672 500.880493,203.310303 508.232605,210.654755 
	C501.097229,217.793259 493.381927,225.511948 485.148163,233.749283 
	C481.032593,229.580078 476.284973,224.770569 471.287170,219.710754 
M489.883636,203.504761 
	C494.058960,197.805969 486.581940,198.668213 486.369995,195.884171 
	C483.920319,197.853699 481.902832,199.475769 480.398041,200.685608 
	C482.425415,203.146790 484.077850,205.152786 485.868103,207.326096 
	C487.278442,205.982224 488.330109,204.980118 489.883636,203.504761 
M483.153870,223.402420 
	C484.110413,224.251007 485.066956,225.099594 485.677277,225.641037 
	C487.765747,223.564529 489.593750,221.746994 491.142609,220.206985 
	C489.484406,218.413925 487.727112,216.513779 486.326172,214.998932 
	C484.155731,216.747818 482.118927,218.389023 479.386017,220.591141 
	C480.776581,221.572083 481.726410,222.242111 483.153870,223.402420 
M492.612946,213.983124 
	C493.573975,214.798645 494.535004,215.614182 495.118317,216.109207 
	C497.431244,214.246689 499.454498,212.617432 500.921082,211.436447 
	C498.806732,208.954803 497.120483,206.975601 494.987366,204.471893 
	C494.513550,208.017395 486.660278,208.172882 492.612946,213.983124 
M476.512024,205.047318 
	C474.596191,206.830856 472.680359,208.614410 470.368195,210.766907 
	C472.543427,212.815872 474.444214,214.606308 476.240204,216.298050 
	C478.398956,214.379501 480.415710,212.587128 482.726135,210.533798 
	C480.549316,208.506210 478.854919,206.927948 476.512024,205.047318 
z"/>
<path fill="#FFFFFF" opacity="1.000000" stroke="none" 
	d="
M519.570312,142.716934 
	C520.553528,143.097595 521.104431,143.769913 521.334717,144.751587 
	C520.388733,144.376846 519.763367,143.692703 519.570312,142.716934 
z"/>
<path fill="#FFFFFF" opacity="1.000000" stroke="none" 
	d="
M520.927368,145.296326 
	C521.437317,145.053009 521.927002,145.140320 522.225281,145.639679 
	C521.658325,145.910126 521.282654,145.768539 520.927368,145.296326 
z"/>
<path fill="#FFFFFF" opacity="1.000000" stroke="none" 
	d="
M521.924805,146.297699 
	C522.437683,146.053101 522.927002,146.140411 523.225098,146.639526 
	C522.656311,146.910751 522.278809,146.770172 521.924805,146.297699 
z"/>
<path fill="#FDFDFD" opacity="1.000000" stroke="none" 
	d="
M174.014526,403.097870 
	C160.820267,399.885406 153.538177,389.710907 154.931213,376.940063 
	C156.161804,365.658264 165.892319,356.813751 177.648651,356.291077 
	C189.276077,355.774109 199.502075,364.432129 201.685913,376.642609 
	C204.423203,391.947601 190.314514,405.664917 174.014526,403.097870 
z"/>
<path fill="#FAFAFA" opacity="1.000000" stroke="none" 
	d="
M695.725708,372.875549 
	C695.710083,367.580841 695.710083,362.774261 695.710083,357.495880 
	C700.943787,357.495880 705.897217,357.079895 710.745178,357.616699 
	C715.299377,358.120972 717.927490,362.021973 717.743713,366.518921 
	C717.548706,371.289337 714.441162,374.719116 709.657959,375.007782 
	C705.846741,375.237823 702.007080,375.172028 698.190491,375.002869 
	C697.351501,374.965637 696.556519,373.936218 695.725708,372.875549 
z"/>
<path fill="#FAFAFA" opacity="1.000000" stroke="none" 
	d="
M767.844116,380.800018 
	C768.520142,379.267639 769.064880,378.098358 770.154602,375.759369 
	C772.836548,382.147644 775.122009,387.591431 777.645264,393.601807 
	C772.417725,393.601807 767.805298,393.601807 762.524109,393.601807 
	C764.324097,389.286835 766.018433,385.224976 767.844116,380.800018 
z"/>
<path fill="#FAFAFA" opacity="1.000000" stroke="none" 
	d="
M271.890869,473.202209 
	C268.391266,473.489624 265.303589,473.699127 261.908875,473.929443 
	C261.908875,468.343475 261.908875,463.421600 261.908875,457.487396 
	C266.135498,457.790192 270.392059,457.723389 274.486359,458.505768 
	C277.779785,459.135040 279.181671,461.855530 279.077759,465.291656 
	C278.941620,469.793274 276.716339,472.377502 271.890869,473.202209 
z"/>
<path fill="#FAFAFA" opacity="1.000000" stroke="none" 
	d="
M466.386536,461.423065 
	C466.155243,458.580017 466.836426,457.094727 469.640259,457.332916 
	C473.447296,457.656342 477.319092,457.532532 481.066803,458.168213 
	C487.243225,459.215790 490.981262,463.371887 491.987274,469.566162 
	C494.718414,486.381897 485.412445,494.611145 466.386078,491.621246 
	C466.386078,481.772400 466.386078,471.825043 466.386536,461.423065 
z"/>
<path fill="#EC0926" opacity="1.000000" stroke="none" 
	d="
M489.632690,203.741379 
	C488.330109,204.980118 487.278442,205.982224 485.868103,207.326096 
	C484.077850,205.152786 482.425415,203.146790 480.398041,200.685608 
	C481.902832,199.475769 483.920319,197.853699 486.369995,195.884171 
	C486.581940,198.668213 494.058960,197.805969 489.632690,203.741379 
z"/>
<path fill="#EC0926" opacity="1.000000" stroke="none" 
	d="
M482.915039,223.157288 
	C481.726410,222.242111 480.776581,221.572083 479.386017,220.591141 
	C482.118927,218.389023 484.155731,216.747818 486.326172,214.998932 
	C487.727112,216.513779 489.484406,218.413925 491.142609,220.206985 
	C489.593750,221.746994 487.765747,223.564529 485.677277,225.641037 
	C485.066956,225.099594 484.110413,224.251007 482.915039,223.157288 
z"/>
<path fill="#EC0926" opacity="1.000000" stroke="none" 
	d="
M492.346924,213.725708 
	C486.660278,208.172882 494.513550,208.017395 494.987366,204.471893 
	C497.120483,206.975601 498.806732,208.954803 500.921082,211.436447 
	C499.454498,212.617432 497.431244,214.246689 495.118317,216.109207 
	C494.535004,215.614182 493.573975,214.798645 492.346924,213.725708 
z"/>
<path fill="#EC0926" opacity="1.000000" stroke="none" 
	d="
M476.836243,205.198502 
	C478.854919,206.927948 480.549316,208.506210 482.726135,210.533798 
	C480.415710,212.587128 478.398956,214.379501 476.240204,216.298050 
	C474.444214,214.606308 472.543427,212.815872 470.368195,210.766907 
	C472.680359,208.614410 474.596191,206.830856 476.836243,205.198502 
z"/>
</svg>